<svg width="55" height="46" viewBox="0 0 55 46" fill="none" xmlns="http://www.w3.org/2000/svg">
<path d="M46 -3.05176e-05L0 46L4.02145e-06 -3.83537e-05L46 -3.05176e-05Z" fill="#9157EB"/>
<path d="M33 46L-2.01072e-06 -3.05176e-05L33 -3.19601e-05L33 46Z" fill="#4BDFFF"/>
<path opacity="0.3" d="M55 -3.05176e-05L9 46L9 -3.83537e-05L55 -3.05176e-05Z" fill="#56CCF2"/>
<path opacity="0.3" d="M36 -2.28882e-05L-3.8147e-06 36L-6.67478e-07 -2.98501e-05L36 -2.28882e-05Z" fill="#EB3DFF"/>
<path opacity="0.3" d="M29 7L5 31L5 7L29 7Z" fill="#9B51E0"/>
<path opacity="0.3" d="M55 5.72205e-06L27 28L27 8.99999L36 2.15366e-06L55 5.72205e-06Z" fill="#EB3DFF"/>
</svg>
